<svg id="Capa_1" enable-background="new 0 0 512 512" height="512" viewBox="0 0 512 512" width="512" xmlns="http://www.w3.org/2000/svg"><g><path d="m512 391v121h-512v-211h211v90z" fill="#ffe1ba"/><path d="m256 391h256v121h-256z" fill="#ffbfab"/><g fill="#ff7b4a"><path d="m30 331h151v60h-151z"/><path d="m30 421h61v61h-61z"/><path d="m121 421h120v61h-120z"/></g><path d="m271 421h120v61h-120z" fill="#ff435b"/><path d="m421 421h61v61h-61z" fill="#ff435b"/><g><path d="m298.158 213.842-61.823-1.824-40.712 104.359 104.359-40.712z" fill="#ffe1ba"/><path d="m298.158 213.842-102.535 102.535 104.359-40.712z" fill="#ffbfab"/></g><path d="m457.598 63.876-4.737-4.737-2.212-2.212-44.607-14.606-169.707 169.697 31.823 31.824 31.824 31.823 169.697-169.707z" fill="#fed843"/><path d="m469.679 105.958-12.081-42.082-4.737-4.737-184.703 184.703 31.824 31.823z" fill="#ff9100"/><path d="m480.184 31.816-31.817-31.816-42.325 42.321 31.819 31.818 31.818 31.819 42.321-42.325z" fill="#61729b"/><path d="m445.004 46.388h59.854v44.996h-59.854z" fill="#47568c" transform="matrix(.707 -.707 .707 .707 90.394 356.003)"/></g></svg>