<svg height="512pt" viewBox="-10 0 512 512.00018" width="512pt" xmlns="http://www.w3.org/2000/svg"><path d="m471 269.0625h-28.972656l-91.039063-255.769531c-4.917969-13.820313-22.601562-17.816407-32.984375-7.4375-19.367187 19.367187-45.113281 30.035156-72.503906 30.035156s-53.136719-10.667969-72.503906-30.03125c-10.378906-10.378906-28.0625-6.394531-32.984375 7.433594l-91.039063 255.769531h-28.972656c-11.046875 0-20 8.953125-20 20s8.953125 20 20 20h451c11.046875 0 20-8.953125 20-20s-8.953125-20-20-20zm-379.566406 0 76.828125-215.855469c22.816406 14.765625 49.417969 22.683594 77.238281 22.683594s54.421875-7.917969 77.238281-22.683594l76.828125 215.855469zm258.125 66.125c-41.871094 0-77.035156 29.257812-86.125 68.40625h-35.867188c-9.089844-39.148438-44.253906-68.40625-86.125-68.40625-48.746094 0-88.40625 39.660156-88.40625 88.40625s39.660156 88.40625 88.40625 88.40625c41.871094 0 77.035156-29.261719 86.125-68.40625h35.867188c9.089844 39.144531 44.253906 68.40625 86.125 68.40625 48.746094 0 88.40625-39.660156 88.40625-88.40625s-39.660156-88.40625-88.40625-88.40625zm-208.117188 136.8125c-26.691406 0-48.40625-21.714844-48.40625-48.40625s21.714844-48.40625 48.40625-48.40625 48.40625 21.714844 48.40625 48.40625-21.714844 48.40625-48.40625 48.40625zm208.117188 0c-26.691406 0-48.40625-21.714844-48.40625-48.40625s21.714844-48.40625 48.40625-48.40625 48.40625 21.714844 48.40625 48.40625-21.714844 48.40625-48.40625 48.40625zm0 0"/></svg>