<?xml version="1.0" encoding="iso-8859-1"?>
<!-- Generator: Adobe Illustrator 16.0.0, SVG Export Plug-In . SVG Version: 6.00 Build 0)  -->
<!DOCTYPE svg PUBLIC "-//W3C//DTD SVG 1.1//EN" "http://www.w3.org/Graphics/SVG/1.1/DTD/svg11.dtd">
<svg version="1.1" id="Capa_1" xmlns="http://www.w3.org/2000/svg" xmlns:xlink="http://www.w3.org/1999/xlink" x="0px" y="0px"
	 width="470.646px" height="470.646px" viewBox="0 0 470.646 470.646" style="enable-background:new 0 0 470.646 470.646;"
	 xml:space="preserve">
<g>
	<g>
		<path d="M261.304,377.342c43.224-10.975,78.653-52.634,78.653-101.361V104.629C339.958,46.939,293.017,0,235.325,0
			c-45.598,0-83.735,27.95-98.753,70.088c-2.38,6.678-5.883,20.032-5.883,34.541V275.98c0,50.475,35.936,92.683,83.563,102.464
			v50.064h-58.286c-11.634,0-21.068,9.432-21.068,21.069c0,11.636,9.434,21.068,21.068,21.068h158.708
			c11.635,0,21.068-9.434,21.068-21.068c0-11.638-9.434-21.069-21.068-21.069h-58.288V378.39
			C258.046,378.086,259.695,377.75,261.304,377.342z M180.159,305.305h20.772c9.309,0,16.855-7.549,16.855-16.857
			c0-9.307-7.546-16.855-16.855-16.855h-28.109v-18.258h27.409c9.307,0,16.855-7.55,16.855-16.855s-7.548-16.854-16.855-16.854
			h-27.409v-18.259h26.706c9.31,0,16.856-7.549,16.856-16.854c0-9.31-7.546-16.854-16.856-16.854h-26.706v-18.262h26.006
			c9.306,0,16.852-7.545,16.852-16.854c0-9.306-7.546-16.852-16.852-16.852h-26.006c0,0,0.175-15.889,0.448-18.255h24.854
			c9.31,0,16.855-7.545,16.855-16.851s-7.545-16.855-16.855-16.855h-9.945c11.47-13.2,28.328-21.597,47.145-21.597
			c18.901,0,35.83,8.471,47.3,21.769h-12.168c-9.306,0-16.851,7.545-16.851,16.854c0,9.31,7.545,16.852,16.851,16.852h26.942
			c0.26,2.316,0.423,18.266,0.423,18.266H271.16c-9.31,0-16.854,7.545-16.854,16.854c0,9.306,7.545,16.852,16.854,16.852h26.662
			v18.261h-25.963c-9.304,0-16.854,7.546-16.854,16.853c0,9.308,7.549,16.854,16.854,16.854h25.963v18.251h-25.258
			c-9.309,0-16.854,7.549-16.854,16.858c0,9.305,7.545,16.854,16.854,16.854h25.258v18.258h-24.559
			c-9.305,0-16.854,7.547-16.854,16.855c0,9.306,7.549,16.852,16.854,16.852h17.131c-10.551,19.629-31.275,33.004-55.07,33.004
			C211.453,338.477,190.684,325.021,180.159,305.305z"/>
		<path d="M235.436,119.901c8.192,0,14.836-6.643,14.836-14.832c0-8.195-6.646-14.835-14.836-14.835
			c-8.195,0-14.836,6.64-14.836,14.835C220.6,113.259,227.24,119.901,235.436,119.901z"/>
		<path d="M235.436,171.164c8.192,0,14.836-6.645,14.836-14.829c0-8.198-6.646-14.839-14.836-14.839
			c-8.195,0-14.836,6.641-14.836,14.839C220.6,164.519,227.24,171.164,235.436,171.164z"/>
		<path d="M235.436,225.938c8.192,0,14.836-6.643,14.836-14.828c0-8.198-6.646-14.839-14.836-14.839
			c-8.195,0-14.836,6.641-14.836,14.839C220.6,219.294,227.24,225.938,235.436,225.938z"/>
		<path d="M250.272,265.884c0-8.198-6.646-14.838-14.836-14.838c-8.195,0-14.836,6.64-14.836,14.838
			c0,8.188,6.641,14.829,14.836,14.829C243.626,280.713,250.272,274.073,250.272,265.884z"/>
	</g>
</g>
<g>
</g>
<g>
</g>
<g>
</g>
<g>
</g>
<g>
</g>
<g>
</g>
<g>
</g>
<g>
</g>
<g>
</g>
<g>
</g>
<g>
</g>
<g>
</g>
<g>
</g>
<g>
</g>
<g>
</g>
</svg>
