<?xml version="1.0" encoding="UTF-8" ?>
<!DOCTYPE svg PUBLIC "-//W3C//DTD SVG 1.1//EN" "http://www.w3.org/Graphics/SVG/1.1/DTD/svg11.dtd">
<svg width="1000pt" height="1000pt" viewBox="0 0 1000 1000" version="1.1" xmlns="http://www.w3.org/2000/svg">
<g id="#000000ff">
<path fill="#000000" opacity="1.00" d=" M 0.00 0.00 L 1000.00 0.00 L 1000.00 200.00 C 666.67 200.00 333.33 200.00 0.00 200.00 L 0.00 0.00 Z" />
<path fill="#000000" opacity="1.00" d=" M 167.00 400.00 C 389.00 400.00 611.00 400.00 833.00 400.00 C 833.00 466.67 833.00 533.33 833.00 600.00 C 611.00 600.00 389.00 600.00 167.00 600.00 C 167.00 533.33 167.00 466.67 167.00 400.00 Z" />
<path fill="#000000" opacity="1.00" d=" M 334.00 800.00 C 445.00 800.00 556.00 800.00 667.00 800.00 C 667.00 866.67 667.00 933.33 667.00 1000.00 L 334.00 1000.00 C 334.00 933.33 334.00 866.67 334.00 800.00 Z" />
</g>
<g id="#ffffffff">
</g>
</svg>
