<?xml version="1.0" encoding="UTF-8" ?>
<!DOCTYPE svg PUBLIC "-//W3C//DTD SVG 1.1//EN" "http://www.w3.org/Graphics/SVG/1.1/DTD/svg11.dtd">
<svg width="727pt" height="245pt" viewBox="0 0 727 245" version="1.1" xmlns="http://www.w3.org/2000/svg">
<g id="#000000ff">
<path fill="#000000" opacity="1.00" d=" M 533.99 87.48 C 550.57 58.71 566.89 29.79 583.60 1.10 C 627.48 76.98 671.69 152.67 715.69 228.48 C 718.55 233.37 721.71 238.10 723.92 243.34 C 630.93 243.33 537.93 243.59 444.94 243.39 C 451.09 231.55 458.13 220.20 464.63 208.55 C 472.05 195.33 480.05 182.43 487.01 168.98 C 470.08 161.32 452.51 155.25 434.82 149.63 C 429.27 148.49 423.97 146.47 418.49 145.12 C 411.28 144.02 404.11 142.71 396.95 141.39 C 390.47 139.58 383.78 138.82 377.12 138.05 C 374.07 137.71 370.94 138.48 368.00 137.33 C 363.50 135.64 358.68 137.39 354.08 136.33 C 347.48 134.90 340.69 135.61 334.00 135.44 C 324.96 135.58 315.85 134.92 306.86 136.20 C 297.76 136.59 288.54 136.87 279.65 139.03 C 268.82 140.88 257.57 140.78 247.14 144.55 C 242.19 146.12 236.90 146.05 231.97 147.70 C 229.75 148.46 227.42 148.67 225.09 148.66 C 226.10 148.78 227.11 148.92 228.12 149.06 C 220.04 150.77 212.39 153.93 204.53 156.40 C 173.09 167.52 143.05 182.63 115.52 201.49 C 107.41 207.36 99.77 213.87 91.44 219.44 C 81.44 227.20 72.21 235.89 63.42 245.00 L 61.45 245.00 C 40.91 223.16 20.33 201.34 0.00 179.31 L 0.00 179.10 C 10.86 168.92 21.95 158.97 33.53 149.62 C 40.01 144.33 47.14 139.93 53.64 134.68 C 59.33 130.32 65.54 126.67 71.15 122.19 C 77.64 117.13 85.05 113.52 91.93 109.06 C 97.04 106.65 101.79 103.64 106.58 100.66 C 115.39 96.05 124.48 91.99 133.45 87.68 C 141.56 82.94 150.83 80.93 159.26 76.88 C 169.65 73.43 179.83 69.31 190.46 66.64 C 197.75 64.09 205.32 62.57 212.82 60.80 C 221.68 57.86 231.08 57.15 239.96 54.34 C 246.14 52.32 252.77 52.53 258.98 50.63 C 263.04 49.35 267.32 49.52 271.50 49.04 C 280.25 47.17 289.24 46.98 298.10 45.85 C 304.06 45.02 310.12 45.85 316.06 44.80 C 318.06 44.44 320.10 44.60 322.09 44.97 C 326.72 43.80 331.32 45.60 335.99 45.35 C 345.64 45.50 355.36 44.77 364.94 46.21 C 375.61 46.56 386.07 48.81 396.66 49.91 C 408.29 51.93 420.00 53.66 431.35 56.99 C 439.50 59.33 448.00 60.33 456.04 63.11 C 463.13 65.14 470.27 67.02 477.36 69.07 C 486.88 70.97 495.52 75.62 504.76 78.50 C 512.15 80.67 518.94 84.40 526.09 87.19 C 528.60 88.27 531.37 87.64 533.99 87.48 Z" />
</g>
</svg>
