<?xml version="1.0" encoding="UTF-8" ?>
<!DOCTYPE svg PUBLIC "-//W3C//DTD SVG 1.1//EN" "http://www.w3.org/Graphics/SVG/1.1/DTD/svg11.dtd">
<svg width="727pt" height="245pt" viewBox="0 0 727 245" version="1.1" xmlns="http://www.w3.org/2000/svg">
<g id="#000000ff">
<path fill="#000000" opacity="1.00" d=" M 10.80 225.86 C 54.43 150.97 97.87 75.97 141.55 1.12 C 158.00 29.92 174.50 58.70 191.01 87.47 C 193.14 87.61 195.31 88.02 197.45 87.69 C 203.57 85.58 209.30 82.49 215.33 80.15 C 223.71 77.38 232.03 74.37 240.15 70.92 C 252.21 68.02 264.10 64.41 276.03 61.01 C 288.50 58.74 300.55 54.72 313.02 52.51 C 320.62 51.43 328.09 49.53 335.77 49.11 C 343.77 47.55 351.89 46.60 360.03 46.26 C 369.60 44.68 379.36 45.55 389.03 45.35 C 393.69 45.73 398.29 43.59 402.89 45.06 C 404.57 44.70 406.29 44.26 408.02 44.67 C 414.96 46.04 422.10 44.81 429.05 46.14 C 434.06 46.36 439.00 47.37 444.02 47.51 C 448.08 47.71 451.97 49.15 456.04 49.31 C 463.78 49.21 471.00 52.52 478.71 52.85 C 487.68 54.94 496.53 57.52 505.66 58.94 C 515.10 62.10 525.11 63.16 534.48 66.64 C 545.15 69.23 555.31 73.48 565.74 76.86 C 571.70 79.64 577.92 81.74 584.09 83.98 C 593.72 88.75 603.44 93.35 613.17 97.92 C 619.91 100.98 625.66 105.75 632.46 108.71 C 638.90 112.90 645.82 116.30 652.05 120.85 C 659.94 127.06 668.60 132.20 676.39 138.55 C 693.91 150.42 709.53 164.81 725.06 179.10 C 704.92 201.34 684.04 222.94 663.67 245.00 L 661.77 245.00 C 652.37 235.78 643.00 226.44 632.38 218.60 C 626.89 215.16 622.10 210.77 616.82 207.05 C 603.51 196.54 588.69 188.19 574.00 179.80 C 565.98 176.15 558.32 171.74 550.20 168.30 C 545.65 166.88 541.72 164.04 537.17 162.63 C 521.60 156.64 505.82 151.16 489.72 146.76 C 485.75 146.02 481.66 145.83 477.81 144.56 C 465.64 140.10 452.36 141.11 439.93 137.81 C 430.98 136.94 422.00 135.76 412.99 136.56 C 413.80 136.36 415.41 135.97 416.21 135.78 C 403.48 135.11 390.72 135.53 377.98 135.48 C 373.59 135.32 369.38 137.26 364.98 136.64 C 361.33 136.10 357.78 136.99 354.35 138.11 C 347.44 137.51 340.56 139.02 333.74 140.02 C 323.76 142.70 313.43 143.63 303.36 145.88 C 297.97 148.09 292.15 148.76 286.69 150.72 C 270.24 156.08 253.89 161.79 238.11 168.91 C 239.69 173.37 242.58 177.17 244.74 181.35 C 255.92 200.81 267.09 220.28 278.26 239.75 C 278.87 240.95 279.45 242.17 280.00 243.41 C 187.05 243.57 94.09 243.32 1.13 243.36 C 3.60 237.13 7.64 231.73 10.80 225.86 Z" />
</g>
</svg>
