<?xml version="1.0" encoding="iso-8859-1"?>
<!-- Generator: Adobe Illustrator 19.0.0, SVG Export Plug-In . SVG Version: 6.00 Build 0)  -->
<svg version="1.1" id="Capa_1" xmlns="http://www.w3.org/2000/svg" xmlns:xlink="http://www.w3.org/1999/xlink" x="0px" y="0px"
	 viewBox="0 0 434.246 434.246" style="enable-background:new 0 0 434.246 434.246;" xml:space="preserve">
<polyline style="fill:#FFFFFF;" points="111.384,227.634 135.81,7.106 427.421,39.402 396.339,320.045 297.849,397.512 
	147.075,380.811 "/>
<path style="fill:#602F75;" d="M297.849,404.339c-0.249,0-0.5-0.014-0.751-0.041l-150.774-16.701
	c-3.748-0.415-6.449-3.789-6.033-7.537c0.415-3.748,3.789-6.451,7.537-6.033l147.997,16.393l94.046-73.97l30.013-271.012
	L141.843,14.642l-23.675,213.745c-0.415,3.748-3.787,6.448-7.537,6.033c-3.748-0.415-6.449-3.789-6.033-7.537l24.426-220.53
	c0.415-3.748,3.791-6.451,7.537-6.033l291.61,32.299c3.748,0.415,6.449,3.789,6.033,7.537l-31.08,280.643
	c-0.201,1.819-1.126,3.482-2.565,4.615l-98.492,77.467C300.861,403.829,299.373,404.339,297.849,404.339z"/>
<path style="fill:#EA3457;" d="M319.783,220.108c-3.36,0-6.287-2.481-6.755-5.903c-1.611-11.791-25.3-13.59-40.974-14.78
	c-14.686-1.114-24.388-1.85-25.958-10.151c-1.517-8.025,3.504-14.285,57.933-40.544c28.297-13.65,30.78-20.234,30.99-21.417
	c0.084-0.476-0.698-1.367-1.171-1.857c-5.448-5.63-38.912-0.427-61.056,3.017c-43.614,6.782-70.702,10.156-77.718-5.268
	c-3.56-7.835-3.063-15.732,1.435-22.842c12.315-19.459,53.953-30.725,117.243-31.722c3.763-0.041,6.874,2.949,6.932,6.719
	c0.058,3.77-2.949,6.874-6.719,6.932c-66.924,1.053-98.594,13.797-105.919,25.371c-2,3.161-2.174,6.304-0.544,9.89
	c3.082,6.775,43.68,0.463,63.191-2.572c38.811-6.036,63.101-9.218,72.967,0.98c4.062,4.197,5.678,8.822,4.803,13.744
	c-1.741,9.777-13.254,19.144-38.501,31.321c-26.259,12.669-39.156,19.917-45.399,24.055c2.758,0.292,5.871,0.527,8.527,0.729
	c20.055,1.522,50.364,3.823,53.468,26.544c0.51,3.736-2.104,7.178-5.84,7.689C320.403,220.087,320.092,220.108,319.783,220.108z"/>
<path style="fill:#00E7FF;" d="M305.587,256.277c-1.05,0-2.115-0.242-3.111-0.754c-3.354-1.722-4.678-5.837-2.956-9.19
	c5.436-10.588-12.95-25.632-25.115-35.589c-11.399-9.327-18.929-15.49-15.459-23.192c3.354-7.444,11.056-9.701,70.711-0.039
	c31.014,5.026,36.821,1.05,37.67,0.201c0.341-0.341,0.212-1.521,0.104-2.193c-1.239-7.736-31.648-22.644-51.77-32.509
	c-39.632-19.429-63.766-32.183-60.679-48.845c1.57-8.462,6.502-14.65,14.264-17.9c21.243-8.895,61.824,5.729,114.266,41.173
	c3.123,2.111,3.944,6.356,1.833,9.479c-2.111,3.123-6.354,3.946-9.479,1.833c-55.453-37.478-88.713-45.181-101.349-39.892
	c-3.451,1.446-5.393,3.922-6.112,7.794c-1.355,7.32,35.536,25.405,53.265,34.098c35.268,17.29,56.998,28.597,59.242,42.609
	c0.925,5.767-0.401,10.484-3.939,14.015c-7.028,7.016-21.832,8.096-49.5,3.613c-28.78-4.661-43.503-6.11-50.992-6.294
	c2.094,1.819,4.509,3.796,6.571,5.482c15.565,12.739,39.088,31.988,28.614,52.39C310.456,254.924,308.065,256.277,305.587,256.277z"
	/>
<polygon style="fill:#602F75;" points="303.52,397.089 289.937,395.71 300.22,294.448 396.136,304.789 394.674,318.364 
	312.414,309.496 "/>
<polygon style="fill:#FFE600;" points="132.431,208.748 234.841,198.747 225.22,301.538 99.616,427.142 6.827,334.352 "/>
<path style="fill:#602F75;" d="M99.616,433.969c-1.811,0-3.546-0.719-4.826-2L2,339.179c-1.28-1.28-2-3.017-2-4.826
	c0-1.809,0.719-3.546,2-4.826l125.604-125.604c1.118-1.118,2.591-1.814,4.164-1.968l102.41-9.999
	c2.029-0.198,4.038,0.519,5.48,1.958c1.444,1.437,2.169,3.444,1.98,5.473l-9.62,102.789c-0.148,1.584-0.845,3.067-1.969,4.192
	L104.445,431.97C103.163,433.25,101.427,433.969,99.616,433.969z M16.481,334.352l83.135,83.135l119.037-119.037l8.62-92.105
	l-91.745,8.958L16.481,334.352z"/>
<rect x="170.305" y="191.499" transform="matrix(-0.7071 0.7071 -0.7071 -0.7071 484.0001 313.2141)" style="fill:#602F75;" width="13.653" height="130.695"/>
<rect x="198.817" y="196.465" transform="matrix(-0.7071 0.7071 -0.7071 -0.7071 512.5144 244.3839)" style="fill:#602F75;" width="13.653" height="63.743"/>
<rect x="8.938" y="291.832" transform="matrix(-0.7071 0.7071 -0.7071 -0.7071 378.4062 440.5765)" style="fill:#602F75;" width="178.038" height="13.653"/>
<rect x="46.273" y="329.176" transform="matrix(-0.7071 0.7071 -0.7071 -0.7071 468.5629 477.921)" style="fill:#602F75;" width="178.055" height="13.653"/>
<g>
</g>
<g>
</g>
<g>
</g>
<g>
</g>
<g>
</g>
<g>
</g>
<g>
</g>
<g>
</g>
<g>
</g>
<g>
</g>
<g>
</g>
<g>
</g>
<g>
</g>
<g>
</g>
<g>
</g>
</svg>
