<svg viewBox="-31 0 512 512" xmlns="http://www.w3.org/2000/svg"><path d="m450 15v166l-30 31h-390l-30-31v-166c0-8.402344 6.597656-15 15-15h420c8.402344 0 15 6.597656 15 15zm0 0" fill="#fdbf00"/><path d="m450 15v166l-30 31h-195v-212h210c8.402344 0 15 6.597656 15 15zm0 0" fill="#ff9f00"/><path d="m415.5 207.5c-2.699219 3-6.601562 4.5-10.5 4.5l-180-2.101562-190.5-2.398438c-6-5.699219-6-16.300781 0-22l120-120c5.699219-6 15.300781-6 21 0l49.5 49.199219 30 30 49.503906-49.199219c5.699219-6 15.296875-6 20.996094 0l90 90c6 5.699219 6 16.300781 0 22zm0 0" fill="#ff7816"/><path d="m415.5 207.5c-2.699219 3-6.601562 4.5-10.5 4.5l-180-2.101562v-95.199219l30 30 49.5-49.199219c5.699219-6 15.300781-6 21 0l90 90c6 5.699219 6 16.300781 0 22zm0 0" fill="#ff4b00"/><path d="m450 181v316c0 8.398438-6.597656 15-15 15h-420c-8.402344 0-15-6.601562-15-15v-316zm0 0" fill="#ececf1"/><path d="m450 181v316c0 8.398438-6.597656 15-15 15h-210v-331zm0 0" fill="#e2e2e7"/><path d="m135 452h-60c-8.289062 0-15-6.710938-15-15v-60c0-8.289062 6.710938-15 15-15h60c8.289062 0 15 6.710938 15 15v60c0 8.289062-6.710938 15-15 15zm0 0" fill="#ff9f00"/><path d="m255 362h-60c-8.402344 0-15 6.597656-15 15v60c0 8.398438 6.597656 15 15 15h60c8.402344 0 15-6.601562 15-15v-60c0-8.402344-6.597656-15-15-15zm0 0" fill="#ff9f00"/><path d="m375 452h-60c-8.289062 0-15-6.710938-15-15v-60c0-8.289062 6.710938-15 15-15h60c8.289062 0 15 6.710938 15 15v60c0 8.289062-6.710938 15-15 15zm0 0" fill="#ff7816"/><path d="m375 242h-300c-8.402344 0-15 6.597656-15 15v60c0 8.398438 6.597656 15 15 15h300c8.402344 0 15-6.601562 15-15v-60c0-8.402344-6.597656-15-15-15zm0 0" fill="#fdbf00"/><path d="m270 377v60c0 8.398438-6.597656 15-15 15h-30v-90h30c8.402344 0 15 6.597656 15 15zm0 0" fill="#ff7816"/><path d="m390 257v60c0 8.398438-6.597656 15-15 15h-150v-90h150c8.402344 0 15 6.597656 15 15zm0 0" fill="#ff9f00"/></svg>