<svg version="1.1" id="Capa_1" xmlns="http://www.w3.org/2000/svg" xmlns:xlink="http://www.w3.org/1999/xlink" x="0px" y="0px"
	 viewBox="0 0 389.44 389.44" style="enable-background:new 0 0 389.44 389.44;" xml:space="preserve">
		<path fill="#edbb00" stroke="#edbb00" stroke-width="10" d="M354.72,84.64H197.08l-31.44-37.4c-0.924-1.096-2.286-1.726-3.72-1.72H34.72C15.554,45.542,0.022,61.074,0,80.24V309.2
			c0.022,19.166,15.554,34.698,34.72,34.72h320c19.166-0.022,34.698-15.554,34.72-34.72V119.36
			C389.418,100.194,373.886,84.662,354.72,84.64z M379.76,309.2c-0.022,13.82-11.22,25.018-25.04,25.04h-320
			C20.9,334.218,9.702,323.02,9.68,309.2V80.24C9.702,66.42,20.9,55.222,34.72,55.2l124.84,0L191,92.6
			c0.924,1.096,2.286,1.726,3.72,1.72h160c13.82,0.022,25.018,11.22,25.04,25.04V309.2z"/>
</svg>
