<svg version="1" xmlns="http://www.w3.org/2000/svg" width="888" height="888" viewBox="0 0 666.000000 666.000000"><path d="M450.9 1.5c-15.2 4-28 16.4-32.2 31.1-.8 2.8-1.5 9-1.5 13.8 0 13.5 3.4 22.2 12.4 31.6 17.7 18.6 49.2 18.9 67.8.7 9.6-9.4 13.8-19.9 13.5-34-.5-20.4-13.5-37.1-33.5-43-6.1-1.8-20.1-1.9-26.5-.2zM141.7 111.6c-.2.3-1.5.7-2.8.9-4.9.9-14.8 6.7-19.6 11.3-6.7 6.4-11.8 14.9-14 23.7-1.1 4.4-.8 93.5.4 102.9 4.2 34.1 21.7 65.1 46.5 82.8 11.4 8.2 28.5 15.8 38.8 17.3 6 .9 7 2.1 2.3 2.8-38.2 5.8-80.1 32.8-102.5 66.2-21.2 31.6-30 66.2-26.6 105.6 4.6 52.8 40.3 103.2 89.4 126 8.8 4.1 24.5 9.8 28.4 10.4 1.4.2 5.7 1.1 9.5 2 4.7 1.1 13.1 1.8 25.5 2 18.8.4 27.7-.4 38.5-3.2 3.3-.8 7.1-1.7 8.5-2 10.8-2 36.9-14.7 50.5-24.6 15-11 33.3-31.5 42.1-47.3 2-3.5 3.6-6.4 3.7-6.4.1 0 .1 3.2 0 7-.3 15.4 7 30.8 21.5 45.6 11.4 11.6 19.5 17.1 34.5 23.3 13.9 5.7 24.5 7.4 47.7 7.5 21.7.1 25.1-.2 37.4-3.4 31.3-8.2 58.7-28.4 70.7-52.2 7.4-14.7 10.8-38.9 7.3-52.3-4.8-18.5-18.1-36.4-38-51.1-4-3-7.5-5.4-7.8-5.4-.3 0-3.4-1.7-6.8-3.8-3.5-2-7.6-4.4-9.3-5.2-1.6-.8-12.7-6.9-24.5-13.6-11.8-6.6-24.2-13.6-27.5-15.4-8.3-4.5-12.2-7.6-14-11-2.1-4-1.9-6.3.8-8.7 3-2.8 5.3-3.5 12-3.9 8.1-.5 12.4 1.8 17.2 9.3 2.1 3.2 4.7 7.2 5.8 8.9 2.1 3.2 8.3 7.6 15.1 10.7 14.8 6.7 36 5.5 50-2.7 20.4-12 27.9-43.4 15.8-66-3.5-6.5-16.8-20-25.2-25.5-13.2-8.6-37.8-18.8-49.5-20.5-2.2-.4-5.5-.9-7.3-1.2l-3.3-.6 4.8-2.8c6.5-3.7 13.7-10.9 17.2-17.3 6.2-10.9 6.1-9.3 6.1-97.7 0-88 .1-85.3-6-96.9-11.8-22.1-41.4-30.7-64.2-18.4-6 3.2-14.8 12.1-18.2 18.2-5.7 10.6-5.6 9.4-5.6 98.1 0 68.2.3 82.3 1.5 86.3 3.6 12 12.2 22.6 23 28.4 3.7 2 5.2 3.3 4 3.3-1.1 0-5.4.9-9.5 2s-8.2 2.2-9.1 2.4c-6.7 1.8-20.5 8.8-29.4 15.1-8.1 5.7-19.9 18-22.7 23.5-.7 1.4-1.7 3.2-2.3 4-2.6 3.4-7.1 15.2-9.6 25-2.6 10.4-2.7 10.5-4 7.5-1.6-3.5-10.8-17.3-15.9-23.6-6.2-7.8-20.9-21.6-30.3-28.3-14.1-10.1-40.4-22.5-53.1-25-1.2-.3-4.3-.9-7.1-1.5-6.8-1.5-9.5-1.9-13-2.1l-3-.2 3.5-1c19-5.5 31.5-10.7 40.7-16.9 4.7-3.3 6.3-3.6 6.3-1.3 0 2.4 11.8 13.6 18 16.9 4.9 2.7 6.4 3 14 3 12.3 0 17.9-3.2 23.2-13 4.3-8.1 4.4-9.9 4.3-102-.1-82.9-.2-88.3-1.9-93.5-4.2-12.1-12.5-22-23.4-27.7-8.1-4.3-15-5.7-24.9-5-18.5 1.3-34.3 13.9-40.7 32.3-1.9 5.4-2.4 15.7-3 64.9-.5 32.7-.8 34.7-7.6 42.7-11.3 13.1-31 12.5-40.5-1.2-5.2-7.5-5.7-10.5-6.1-39-.9-57.2-1.1-62.2-3-67.4-7.1-20.1-24-32.4-44.6-32.4-4.7 0-8.8.2-9.1.4zM239 447c16 5.3 31 18.1 38.2 32.5 5.1 10.2 6.9 17.6 6.9 29-.1 9.4-.4 11.8-3.3 20.5-3.3 10.2-8.4 18.3-16.4 26.3-30.3 30.3-79.7 21.9-99.3-17-11.9-23.5-9.2-48.7 7.5-70.5 7.9-10.2 20.9-18.5 34.4-21.9 8.9-2.2 23.3-1.7 32 1.1zm145.1 61.6c2.9 1.9 16.7 9.1 30.5 16 25.2 12.4 48.2 24.6 56 29.6 7.5 4.8 10.7 11.2 8.5 17-1.7 4.6-5.6 6.3-14.1 6.2-8.6-.1-13.6-2.1-18.5-7.5-7.2-7.8-13-13.1-16.9-15.4-18-10.5-42.8-8.2-56.9 5.2-2.2 2.1-3.8 3.1-3.4 2.3 5.3-13.4 9-33.9 9.1-50.8 0-3.4.1-6.2.2-6.2s2.6 1.6 5.5 3.6z"/></svg>