<?xml version="1.0" encoding="iso-8859-1"?>
<!-- Generator: Adobe Illustrator 19.0.0, SVG Export Plug-In . SVG Version: 6.00 Build 0)  -->
<svg version="1.1" id="Capa_1" xmlns="http://www.w3.org/2000/svg" xmlns:xlink="http://www.w3.org/1999/xlink" x="0px" y="0px"
	 viewBox="0 0 464.038 464.038" style="enable-background:new 0 0 464.038 464.038;" xml:space="preserve">
<path style="fill:#CFDFE8;" d="M448,128.019H272c-9.269-0.462-16.421-8.329-16-17.6V16.683c-0.589-8.545,5.806-15.974,14.344-16.664
	h179.312c8.538,0.69,14.933,8.119,14.344,16.664v93.736C464.421,119.69,457.269,127.557,448,128.019z"/>
<path style="fill:#FDBD40;" d="M0,176.019h464v32H0V176.019z"/>
<g>
	<path style="fill:#FFD782;" d="M16,208.019h32v256H16V208.019z"/>
	<path style="fill:#FFD782;" d="M288,208.019h160v256H288V208.019z"/>
</g>
<path style="fill:#D3843D;" d="M48,208.019h240v256H48V208.019z"/>
<circle style="fill:#FFD782;" cx="168" cy="64.019" r="48"/>
<path style="fill:#2D75BB;" d="M80,176.019c0-44.184,32.8-56,73.336-56h29.328c40.536,0,73.336,11.816,73.336,56"/>
<path style="fill:#7D8D9C;" d="M336,64.019h48v112h-48V64.019z"/>
<g>
	<path style="fill:#D3843D;" d="M408,232.019h40v16h-40V232.019z"/>
	<path style="fill:#D3843D;" d="M376,232.019h16v16h-16V232.019z"/>
</g>
<path style="fill:#7D8D9C;" d="M352,24.019h16v16h-16V24.019z"/>
<g>
</g>
<g>
</g>
<g>
</g>
<g>
</g>
<g>
</g>
<g>
</g>
<g>
</g>
<g>
</g>
<g>
</g>
<g>
</g>
<g>
</g>
<g>
</g>
<g>
</g>
<g>
</g>
<g>
</g>
</svg>
