<svg height="512" viewBox="0 0 64 64" width="512" xmlns="http://www.w3.org/2000/svg"><g id="Market"><path d="m61 5v10h-58v-10a2.006 2.006 0 0 1 2-2h54a2.006 2.006 0 0 1 2 2z" fill="#1a6fb0"/><path d="m61 21.5v37.5a2.006 2.006 0 0 1 -2 2h-54a2.006 2.006 0 0 1 -2-2v-37.5a5.5 5.5 0 0 0 11 0v-.5a6 6 0 0 0 12 0 6 6 0 0 0 12 0 6 6 0 0 0 12 0v.5a5.5 5.5 0 0 0 11 0z" fill="#ffdaaa"/><path d="m59 3h-3a2.006 2.006 0 0 1 2 2v10h3v-10a2.006 2.006 0 0 0 -2-2z" fill="#17619a"/><path d="m58 15v44a2.006 2.006 0 0 1 -2 2h3a2.006 2.006 0 0 0 2-2v-44z" fill="#ffc477"/><circle cx="9" cy="9" fill="#d80027" r="2"/><circle cx="17" cy="9" fill="#ffcd00" r="2"/><circle cx="25" cy="9" fill="#5eac24" r="2"/><path d="m32 27a6 6 0 0 0 6-6v-6h-12v6a6 6 0 0 0 6 6z" fill="#ff5023"/><path d="m44 27a6 6 0 0 0 6-6v-6h-12v6a6 6 0 0 0 6 6z" fill="#ffbcab"/><path d="m20 27a6 6 0 0 0 6-6v-6h-12v6a6 6 0 0 0 6 6z" fill="#ffbcab"/><path d="m50 21v.5a5.5 5.5 0 0 0 11 0v-6.5h-11z" fill="#ff5023"/><path d="m58 15v11.4a5.5 5.5 0 0 0 3-4.9v-6.5z" fill="#ef4136"/><path d="m8.5 27a5.5 5.5 0 0 0 5.5-5.5v-6.5h-11v6.5a5.5 5.5 0 0 0 5.5 5.5z" fill="#ff5023"/><path d="m27 36v25h-16v-25a1 1 0 0 1 1-1h14a1 1 0 0 1 1 1z" fill="#58595b"/><path d="m35 44v5a1 1 0 0 0 1 1h9v-6z" fill="#fbb040"/><path d="m45 44h10v-5a1 1 0 0 0 -1-1h-9z" fill="#fbb040"/><path d="m45 50h9a1 1 0 0 0 1-1v-5h-10z" fill="#ffcd00"/><path d="m45 38h-9a1 1 0 0 0 -1 1v5h10z" fill="#ffcd00"/><g fill="#f1f2f2"><path d="m14 38h10v6h-10z"/><path d="m24 49h-1a1 1 0 0 0 0 2h1a1 1 0 0 0 0-2z"/></g></g></svg>