<svg height='300px' width='300px' fill="#ff3b30" xmlns="http://www.w3.org/2000/svg" xmlns:xlink="http://www.w3.org/1999/xlink" version="1.1" x="0px" y="0px" viewBox="0 0 100 100" enable-background="new 0 0 100 100" xml:space="preserve"><path d="M39.2,75c2.9,1.3,6.4-0.2,7.7-3.1l16.9-39.2c0.6-1.4,0.6-3,0.1-4.5c-0.6-1.5-1.7-2.6-3.1-3.2c-0.7-0.3-1.5-0.5-2.3-0.5  c-2.3,0-4.4,1.4-5.4,3.5L36.2,67.3c-0.6,1.4-0.6,3-0.1,4.5C36.7,73.2,37.8,74.3,39.2,75z"></path><path d="M80.1,26.6c-1.1-1.3-2.7-2-4.4-2c-1.4,0-2.8,0.5-3.8,1.4c-1.2,1-1.9,2.4-2,4s0.4,3.1,1.4,4.2L84.8,50L71.2,65.8  c-2.1,2.4-1.8,6.1,0.6,8.2c2.4,2,6.2,1.7,8.2-0.6L97,53.8c1.9-2.2,1.9-5.4,0-7.6L80.1,26.6z"></path><path d="M28.2,74c2.4-2.1,2.7-5.8,0.6-8.2L15.2,50l13.6-15.8c1-1.2,1.5-2.7,1.4-4.2c-0.1-1.6-0.8-3-2-4c-1.1-0.9-2.4-1.4-3.8-1.4  c-1.7,0-3.3,0.7-4.4,2L3,46.2c-1.9,2.2-1.9,5.4,0,7.6l16.9,19.6C21.9,75.7,25.8,76,28.2,74z"></path></svg>