<svg id="Capa_1" enable-background="new 0 0 512 512" height="512" viewBox="0 0 512 512" width="512" xmlns="http://www.w3.org/2000/svg"><g><g><path d="m0 34.177v443.646h256l20-221.823-20-221.823z" fill="#f2d283"/><path d="m256 34.177h256v443.646h-256z" fill="#edb943"/></g><g><path d="m63.734 97.912v316.176l98.133-10 94.133 10 20-159.967-20-156.209z" fill="#ebfaff"/><path d="m448.266 97.912h-192.266v316.176l52-10 47.508 10h92.758z" fill="#d4ecfd"/></g><g><circle cx="347.358" cy="198.819" fill="#e6973e" r="37.173"/><g><path d="m228.039 414.088h27.961l10-20.921-10-25.289z" fill="#4d725f"/><path d="m291.773 308.758-35.773 59.12v46.21h99.508z" fill="#3a5948"/></g><g><path d="m166.615 244.063-102.881 170.025h192.266l4-8.755-4-13.549z" fill="#7ea380"/><path d="m256 391.784v22.304h13.496z" fill="#4d725f"/></g></g></g></svg>