<?xml version="1.0" encoding="iso-8859-1"?>
<!-- Generator: Adobe Illustrator 19.0.0, SVG Export Plug-In . SVG Version: 6.00 Build 0)  -->
<svg version="1.1" id="Capa_1" xmlns="http://www.w3.org/2000/svg" xmlns:xlink="http://www.w3.org/1999/xlink" x="0px" y="0px"
	 viewBox="0 0 512 512" style="enable-background:new 0 0 512 512;" xml:space="preserve">
<g>
	<rect x="69.908" y="7.5" style="fill:#FFA733;" width="372.18" height="35.537"/>
	<rect x="69.908" y="155.82" style="fill:#FFA733;" width="372.18" height="35.537"/>
	<rect x="69.908" y="304.14" style="fill:#FFA733;" width="372.18" height="35.537"/>
	<rect x="69.908" y="452.46" style="fill:#FFA733;" width="372.18" height="35.537"/>
</g>
<g>
	<rect x="69.908" y="7.5" style="fill:#FF6243;" width="83.23" height="35.537"/>
	<rect x="69.908" y="155.82" style="fill:#FF6243;" width="83.23" height="35.537"/>
	<rect x="69.908" y="304.14" style="fill:#FF6243;" width="83.23" height="35.537"/>
	<rect x="69.908" y="452.46" style="fill:#FF6243;" width="83.23" height="35.537"/>
</g>
<rect x="442.08" y="7.5" style="fill:#FFA733;" width="35.537" height="497"/>
<g>
	<rect x="442.08" y="7.5" style="fill:#FF6243;" width="17.768" height="497"/>
	<rect x="34.378" y="7.5" style="fill:#FF6243;" width="35.537" height="497"/>
</g>
<g>
	<rect x="69.827" y="43.04" style="fill:#A258CD;" width="33.13" height="112.78"/>
	<rect x="102.96" y="43.04" style="fill:#A258CD;" width="33.13" height="112.78"/>
	<rect x="136.09" y="43.04" style="fill:#A258CD;" width="33.13" height="112.78"/>
</g>
<rect x="69.827" y="66.5" style="fill:#FF6243;" width="99.39" height="28.5"/>
<g>
	<rect x="226.11" y="339.68" style="fill:#ACABB1;" width="33.13" height="112.78"/>
	<rect x="259.24" y="339.68" style="fill:#ACABB1;" width="33.13" height="112.78"/>
	<rect x="292.37" y="339.68" style="fill:#ACABB1;" width="33.13" height="112.78"/>
</g>
<g>
	<rect x="226.11" y="363.14" style="fill:#2488FF;" width="99.39" height="28.5"/>
	<rect x="252.76" y="43.04" style="fill:#2488FF;" width="33.13" height="112.78"/>
	<rect x="369.11" y="43.04" style="fill:#2488FF;" width="33.13" height="112.78"/>
	<rect x="69.831" y="191.36" style="fill:#2488FF;" width="36.654" height="112.78"/>
	<rect x="106.48" y="191.36" style="fill:#2488FF;" width="36.654" height="112.78"/>
	<rect x="143.13" y="191.36" style="fill:#2488FF;" width="36.654" height="112.78"/>
</g>
<g>
	<rect x="169.21" y="67.67" style="fill:#FF6243;" width="27.847" height="88.15"/>
	<rect x="197.06" y="67.67" style="fill:#FF6243;" width="27.847" height="88.15"/>
	<rect x="224.91" y="67.67" style="fill:#FF6243;" width="27.847" height="88.15"/>
</g>
<g>
	<rect x="259.47" y="191.36" style="fill:#2488FF;" width="33.13" height="112.78"/>
	<rect x="292.6" y="191.36" style="fill:#2488FF;" width="33.13" height="112.78"/>
	<rect x="325.73" y="191.36" style="fill:#2488FF;" width="33.13" height="112.78"/>
</g>
<g>
	<rect x="259.47" y="241.91" style="fill:#FF6243;" width="33.13" height="62.24"/>
	<rect x="292.6" y="241.91" style="fill:#FF6243;" width="33.13" height="62.24"/>
	<rect x="325.73" y="241.91" style="fill:#FF6243;" width="33.13" height="62.24"/>
</g>
<g>
	<rect x="358.86" y="215.99" style="fill:#A258CD;" width="27.742" height="88.15"/>
	<rect x="386.6" y="215.99" style="fill:#A258CD;" width="27.742" height="88.15"/>
	<rect x="414.34" y="215.99" style="fill:#A258CD;" width="27.742" height="88.15"/>
</g>
<g>
	<rect x="325.61" y="364.31" style="fill:#FF6243;" width="27.742" height="88.15"/>
	<rect x="353.35" y="364.31" style="fill:#FF6243;" width="27.742" height="88.15"/>
	<rect x="381.1" y="364.31" style="fill:#FF6243;" width="27.742" height="88.15"/>
</g>
<g>
	<rect x="285.89" y="67.67" style="fill:#ACABB1;" width="27.742" height="88.15"/>
	<rect x="313.63" y="67.67" style="fill:#ACABB1;" width="27.742" height="88.15"/>
</g>
<rect x="402.24" y="67.67" style="fill:#A258CD;" width="39.845" height="88.15"/>
<g>
	<rect x="219.63" y="215.99" style="fill:#ACABB1;" width="39.845" height="88.15"/>
	<rect x="179.78" y="215.99" style="fill:#ACABB1;" width="39.845" height="88.15"/>
</g>
<g>
	<rect x="341.37" y="43.04" style="fill:#2488FF;" width="27.742" height="112.78"/>
	<rect x="408.84" y="339.68" style="fill:#2488FF;" width="33.25" height="112.78"/>
</g>
<rect x="153.13" y="339.68" style="fill:#FF6243;" width="33.13" height="112.78"/>
<g>
	<rect x="69.908" y="364.31" style="fill:#A258CD;" width="27.742" height="88.15"/>
	<rect x="97.65" y="364.31" style="fill:#A258CD;" width="27.742" height="88.15"/>
</g>
<rect x="186.26" y="364.31" style="fill:#2488FF;" width="39.845" height="88.15"/>
<rect x="125.39" y="339.68" style="fill:#FF6243;" width="27.742" height="112.78"/>
<path style="fill:#1D1D1F;" d="M26.878,0v512h50.537v-16.5h357.17V512h50.537V0H26.878z M434.585,148.321h-24.844V75.167h24.844
	V148.321z M434.585,296.642h-12.741v-73.154h12.741V296.642z M434.585,332.179H77.415v-20.537h357.17L434.585,332.179
	L434.585,332.179z M434.585,444.963h-18.246v-97.785h18.246V444.963z M394.741,148.321h-18.13V50.537h18.13V148.321z
	 M361.611,148.321H348.87V50.537h12.741V148.321z M406.844,296.642h-12.742v-73.154h12.742V296.642z M379.102,296.642H366.36
	v-73.154h12.742V296.642z M187.283,223.488h24.845v73.154h-24.845V223.488z M251.973,296.642h-24.845v-73.154h24.845V296.642z
	 M266.973,249.406h18.129v47.236h-18.129V249.406z M300.102,249.406h18.129v47.236h-18.129V249.406z M333.23,249.406h18.129v47.236
	H333.23V249.406z M351.359,234.406H333.23v-35.548h18.129V234.406z M318.23,234.406h-18.129v-35.548h18.129V234.406z
	 M285.102,234.406h-18.129v-35.548h18.129V234.406z M251.973,208.488h-64.689v-9.63h64.689L251.973,208.488L251.973,208.488z
	 M172.283,296.642h-21.649v-97.784h21.649V296.642z M135.63,296.642h-21.645v-97.784h21.645V296.642z M98.98,296.642H77.415v-97.784
	H98.98V296.642z M161.715,87.5h-18.13V74h18.13V87.5z M128.585,87.5h-18.129V74h18.129V87.5z M95.456,87.5H77.415V74h18.041V87.5z
	 M77.415,102.5h18.041v45.821H77.415V102.5z M110.456,102.5h18.129v45.821h-18.129C110.456,148.321,110.456,102.5,110.456,102.5z
	 M143.585,102.5h18.13v45.821h-18.13V102.5z M176.715,75.167h12.847v73.155h-12.847V75.167z M217.409,148.321h-12.848V75.167h12.848
	V148.321z M245.257,148.321h-12.848V75.167h12.848L245.257,148.321L245.257,148.321z M260.257,88.25h18.129v60.071h-18.129V88.25z
	 M293.386,75.167h12.742v73.155h-12.742V75.167z M333.87,148.321h-12.742V75.167h12.742V148.321z M333.87,60.167h-40.484v-9.63
	h40.484V60.167z M278.386,73.25h-18.129V50.537h18.129V73.25z M245.257,60.167h-68.542v-9.63h68.542L245.257,60.167L245.257,60.167z
	 M161.715,59h-18.13v-8.463h18.13V59z M128.585,59h-18.129v-8.463h18.129V59z M95.456,59H77.415v-8.463h18.041V59z M77.415,371.809
	H90.15v73.155H77.415V371.809z M77.415,356.809v-9.63h40.477v9.63H77.415z M105.15,371.809h12.741v73.155H105.15V371.809z
	 M132.892,347.179h12.742v97.785h-12.742V347.179z M160.634,347.179h18.129v97.785h-18.129V347.179z M233.607,370.642h18.129v13.5
	h-18.129V370.642z M266.736,370.642h18.129v13.5h-18.129V370.642z M299.865,370.642h18.129v13.5h-18.129V370.642z M345.854,417.5
	h-12.742v-45.691h12.742V417.5z M373.597,417.5h-12.742v-45.691h12.742V417.5z M401.339,417.5h-12.742v-45.691h12.742V417.5z
	 M332.994,356.809v-9.63h68.345v9.63H332.994z M317.994,355.642h-18.129v-8.463h18.129V355.642z M284.865,355.642h-18.129v-8.463
	h18.129V355.642z M251.736,355.642h-18.129v-8.463h18.129V355.642z M218.607,356.809h-24.845v-9.63h24.845V356.809z
	 M193.763,371.809h24.845v73.155h-24.845V371.809z M233.607,399.142h18.129v45.821h-18.129V399.142z M266.736,399.142h18.129v45.821
	h-18.129V399.142z M299.865,399.142h18.129v45.821h-18.129V399.142z M333.112,432.5h12.742v12.463h-12.742V432.5z M360.854,432.5
	h12.742v12.463h-12.742V432.5z M388.597,432.5h12.742v12.463h-12.742V432.5z M366.359,208.488v-9.63h68.226v9.63H366.359z
	 M434.585,183.858H77.415v-20.537h357.17L434.585,183.858L434.585,183.858z M409.741,60.167v-9.63h24.844v9.63H409.741z M434.585,15
	v20.537H77.415V15H434.585z M62.415,497H41.878V15h20.53v480.5h0.007C62.415,495.5,62.415,497,62.415,497z M77.415,480.5v-20.537
	h357.17V480.5H77.415z M470.122,497h-20.537V15h20.537V497z"/>
<g>
	<rect x="86.56" y="166.09" style="fill:#FFFFFF;" width="15" height="15"/>
	<rect x="136.56" y="166.09" style="fill:#FFFFFF;" width="15" height="15"/>
	<rect x="111.56" y="166.09" style="fill:#FFFFFF;" width="15" height="15"/>
	<rect x="136.56" y="314.41" style="fill:#FFFFFF;" width="15" height="15"/>
	<rect x="111.56" y="314.41" style="fill:#FFFFFF;" width="15" height="15"/>
	<rect x="86.56" y="314.41" style="fill:#FFFFFF;" width="15" height="15"/>
	<rect x="86.56" y="462.73" style="fill:#FFFFFF;" width="15" height="15"/>
	<rect x="136.56" y="462.73" style="fill:#FFFFFF;" width="15" height="15"/>
	<rect x="111.56" y="462.73" style="fill:#FFFFFF;" width="15" height="15"/>
</g>
<g>
	<rect x="414.66" y="86" style="fill:#1D1D1F;" width="15" height="20.5"/>
	<rect x="198.69" y="382.64" style="fill:#1D1D1F;" width="15" height="20.5"/>
	<rect x="192.21" y="254.33" style="fill:#1D1D1F;" width="15" height="39.33"/>
	<rect x="232.05" y="254.33" style="fill:#1D1D1F;" width="15" height="39.33"/>
</g>
<g>
</g>
<g>
</g>
<g>
</g>
<g>
</g>
<g>
</g>
<g>
</g>
<g>
</g>
<g>
</g>
<g>
</g>
<g>
</g>
<g>
</g>
<g>
</g>
<g>
</g>
<g>
</g>
<g>
</g>
</svg>
