<?xml version="1.0" encoding="iso-8859-1"?>
<!-- Generator: Adobe Illustrator 19.0.0, SVG Export Plug-In . SVG Version: 6.00 Build 0)  -->
<svg version="1.1" id="Capa_1" xmlns="http://www.w3.org/2000/svg" xmlns:xlink="http://www.w3.org/1999/xlink" x="0px" y="0px"
	 viewBox="0 0 384.008 384.008" style="enable-background:new 0 0 384.008 384.008;" xml:space="preserve">
<g>
	<g>
		<path d="M368,60.084H143.344c-6.632-20.896-26.08-36.08-49.016-36.08c-22.896,0-42.336,15.184-48.952,36.08H16
			c-8.832,0-16,7.168-16,16v106.608v65.024c0,61.92,49.848,112.288,111.128,112.288h161.744c61.28,0,111.136-50.368,111.136-112.288
			v-65.024V76.084C384,67.244,376.832,60.084,368,60.084z M74.936,75.804c0-10.92,8.696-19.8,19.392-19.8
			c10.704,0,19.408,8.848,19.448,20.008c-0.128,11.048-8.656,19.704-19.448,19.704c-10.584,0-19.288-8.872-19.392-19.784
			c0-0.024-0.008-0.04-0.008-0.056C74.928,75.844,74.936,75.828,74.936,75.804z M272.864,328.004H111.128
			c-38.496,0-70.656-28.04-77.696-65.04c1.224,1.216,2.568,2.312,3.848,3.464c1.2,1.088,2.36,2.216,3.608,3.248
			c1.488,1.232,3.072,2.344,4.624,3.504c1.304,0.968,2.56,1.992,3.904,2.896c1.608,1.096,3.312,2.056,4.976,3.064
			c1.384,0.832,2.72,1.728,4.144,2.504c1.744,0.952,3.568,1.76,5.36,2.616c1.432,0.688,2.832,1.44,4.296,2.064
			c1.888,0.808,3.856,1.448,5.792,2.152c1.456,0.52,2.864,1.128,4.344,1.592c2.056,0.64,4.184,1.112,6.288,1.64
			c1.432,0.36,2.832,0.8,4.288,1.104c2.392,0.496,4.84,0.792,7.28,1.128c1.224,0.168,2.424,0.432,3.664,0.56
			c3.704,0.376,7.464,0.576,11.272,0.576h161.744c3.808,0,7.56-0.2,11.272-0.576c1.264-0.128,2.48-0.4,3.728-0.568
			c2.416-0.336,4.848-0.632,7.216-1.12c1.48-0.304,2.904-0.752,4.36-1.12c2.08-0.52,4.184-0.984,6.216-1.624
			c1.512-0.472,2.968-1.088,4.456-1.624c1.904-0.688,3.832-1.32,5.688-2.104c1.512-0.648,2.952-1.416,4.432-2.128
			c1.752-0.84,3.528-1.624,5.232-2.552c1.456-0.792,2.824-1.712,4.24-2.56c1.64-0.992,3.304-1.936,4.888-3.008
			c1.368-0.928,2.656-1.968,3.984-2.96c1.52-1.136,3.08-2.224,4.544-3.44c1.288-1.064,2.488-2.24,3.728-3.36
			c1.24-1.128,2.544-2.184,3.736-3.368C343.528,299.972,311.368,328.004,272.864,328.004z M352,182.684
			c0,44.32-35.504,80.376-79.136,80.376H111.128C67.496,263.06,32,227.004,32,182.684V92.076h13.552
			c0.072,0.216,0.184,0.4,0.256,0.616c0.712,2.072,1.568,4.08,2.528,6.024c0.208,0.416,0.392,0.84,0.608,1.248
			c1.08,2.048,2.288,4.008,3.616,5.888c0.288,0.4,0.584,0.784,0.888,1.184c1.344,1.792,2.776,3.504,4.328,5.104
			c0.112,0.12,0.216,0.248,0.328,0.36c1.648,1.664,3.432,3.168,5.288,4.592c0.408,0.312,0.816,0.624,1.232,0.928
			c1.872,1.352,3.824,2.6,5.872,3.696c0.304,0.168,0.624,0.296,0.936,0.456c0.824,0.416,1.648,0.84,2.504,1.216v59.296
			c0,8.832,7.168,16,16,16h8.8c8.832,0,16-7.168,16-16v-59.288c0.848-0.376,1.672-0.792,2.504-1.216
			c0.32-0.168,0.656-0.304,0.976-0.472c2.04-1.088,3.992-2.336,5.856-3.688c0.424-0.304,0.84-0.616,1.248-0.936
			c1.856-1.424,3.64-2.928,5.28-4.584c0.12-0.12,0.224-0.248,0.336-0.368c1.56-1.6,2.984-3.312,4.328-5.096
			c0.296-0.392,0.592-0.768,0.872-1.168c1.336-1.888,2.552-3.856,3.64-5.92c0.208-0.392,0.384-0.792,0.576-1.184
			c0.984-1.992,1.856-4.04,2.584-6.168c0.064-0.176,0.16-0.336,0.216-0.52H352V182.684z"/>
	</g>
</g>
<g>
	<g>
		<ellipse cx="297.592" cy="137.524" rx="24.08" ry="24.16"/>
	</g>
</g>
<g>
	<g>
		<ellipse cx="236" cy="146.396" rx="24.08" ry="24.16"/>
	</g>
</g>
<g>
	<g>
		<ellipse cx="174.4" cy="155.308" rx="24.08" ry="24.16"/>
	</g>
</g>
<g>
	<g>
		<ellipse cx="297.592" cy="199.836" rx="24.08" ry="24.16"/>
	</g>
</g>
<g>
	<g>
		<ellipse cx="236" cy="208.724" rx="24.08" ry="24.16"/>
	</g>
</g>
<g>
	<g>
		<ellipse cx="174.4" cy="217.684" rx="24.08" ry="24.16"/>
	</g>
</g>
<g>
</g>
<g>
</g>
<g>
</g>
<g>
</g>
<g>
</g>
<g>
</g>
<g>
</g>
<g>
</g>
<g>
</g>
<g>
</g>
<g>
</g>
<g>
</g>
<g>
</g>
<g>
</g>
<g>
</g>
</svg>
