<svg height="512pt" viewBox="-66 0 512 512" width="512pt" xmlns="http://www.w3.org/2000/svg"><path d="m131 185.714844v278.441406h168.84375l29.179688-.003906v-278.4375zm0 0" fill="#e9ca92" fill-rule="evenodd"/><path d="m257.015625 301.417969v-76.636719h-81.777344v76.636719c0 26.949219 16.914063 50.222656 40.890625 60.210937 23.972656-9.988281 40.886719-33.265625 40.886719-60.210937zm0 0" fill="#dbd8db"/><path d="m242.25 185.714844h-67.015625v39.066406h81.78125v-39.066406zm0 0" fill="#ff3855"/><path d="m224.789062 13.40625c-24.933593 8.6875-47.46875 22.492188-66.351562 40.15625 10.152344-2.328125 20.71875-3.5625 31.5625-3.5625 76.382812 0 139.027344 61.148438 139.027344 135.714844h40.921875c-2.019531-85.214844-64.015625-156.253906-145.160157-172.308594zm0 0" fill="#ffbf47" fill-rule="evenodd"/><path d="m210.957031 301.417969c0-11.296875-9.382812-20.457031-20.957031-20.457031s-20.957031 9.160156-20.957031 20.457031 9.382812 20.457031 20.957031 20.457031 20.957031-9.160156 20.957031-20.457031zm0 0" fill="#ffbf47" fill-rule="evenodd"/><path d="m175.234375 301.417969v-76.636719h-52.25v76.636719c0 35.980469 30.15625 65.417969 67.015625 65.417969 9.257812 0 18.085938-1.855469 26.125-5.207032-23.972656-9.988281-40.890625-33.265625-40.890625-60.210937zm0 0" fill="#fff"/><path d="m122.984375 185.714844h52.25v39.066406h-52.25zm0 0" fill="#fff"/><g fill-rule="evenodd"><path d="m328.515625 185.714844h.511719c-.003906-62.515625-44.035156-115.589844-103.277344-131.117188-59.242188 15.527344-103.273438 68.601563-103.277344 131.117188zm0 0" fill="#dbd8db"/><path d="m329.023438 185.714844v278.441406h40.976562v-274.15625c0-1.433594-.019531-2.863281-.050781-4.285156zm0 0" fill="#ff3855"/><path d="m91.949219 483.078125v-18.921875h-40.976563v18.921875c0 10.40625 8.515625 18.921875 18.925782 18.921875h3.128906c10.40625 0 18.921875-8.515625 18.921875-18.921875zm0 0" fill="#737481"/><path d="m288.050781 464.15625v18.921875c0 10.40625 8.515625 18.921875 18.921875 18.921875h3.128906c10.410157 0 18.925782-8.515625 18.925782-18.921875v-18.925781zm0 0" fill="#737481"/></g><path d="m380 185.714844c0-.429688-.035156-.847656-.089844-1.261719-1.394531-48.484375-21.046875-93.980469-55.714844-128.648437-35.984374-35.988282-83.644531-55.804688-134.195312-55.804688-50.554688 0-98.210938 19.816406-134.195312 55.804688-34.667969 34.667968-54.320313 80.164062-55.7148442 128.648437-.0546876.414063-.0898438.832031-.0898438 1.261719 0 .28125.0195312.558594.0429688.835937-.0234376 1.148438-.0429688 2.296875-.0429688 3.449219v274.15625c0 5.519531 4.476562 10 10 10h30.976562v8.921875c0 15.945313 12.972657 28.921875 28.921876 28.921875h3.128906c15.949218 0 28.925781-12.976562 28.925781-28.921875v-8.921875h176.097656v8.921875c0 15.945313 12.972657 28.921875 28.921875 28.921875h3.132813c15.945312 0 28.921875-12.976562 28.921875-28.921875v-8.921875h30.972656c5.523438 0 10-4.480469 10-10v-274.15625c0-1.152344-.023438-2.300781-.042969-3.449219.023438-.277343.042969-.554687.042969-.835937zm-190-165.714844c88.925781 0 162.113281 68.636719 169.394531 155.714844h-20.722656c-2.445313-35.035156-17.679687-67.738282-43.53125-92.976563-28.234375-27.5625-65.574219-42.738281-105.140625-42.738281-39.570312 0-76.910156 15.179688-105.144531 42.738281-25.851563 25.238281-41.082031 57.941407-43.527344 92.976563h-20.722656c7.28125-87.078125 80.46875-155.714844 169.394531-155.714844zm129.023438 434.15625h-258.046876v-258.441406h52.011719v105.703125c0 41.585937 34.546875 75.417969 77.015625 75.417969 42.464844 0 77.011719-33.832032 77.011719-75.417969v-105.703125h52.011719v258.441406zm-72.007813-258.441406v19.066406h-114.03125v-19.066406zm-114.03125 39.066406h114.03125v66.636719c0 30.558593-25.578125 55.417969-57.015625 55.417969s-57.015625-24.859376-57.015625-55.417969zm134.03125-59.066406v-20.226563c0-5.519531-4.476563-10-10-10s-10 4.480469-10 10v20.226563h-47.015625v-31.039063c0-5.523437-4.476562-10-10-10s-10 4.476563-10 10v31.039063h-47.015625v-20.226563c0-5.519531-4.476563-10-10-10-5.519531 0-10 4.480469-10 10v20.226563h-51.601563c5.25-64.664063 60.925782-115.714844 128.613282-115.714844 67.691406 0 123.371094 51.050781 128.621094 115.714844zm-247.015625 20h20.976562v258.441406h-20.976562zm61.949219 287.363281c0 4.917969-4 8.921875-8.921875 8.921875h-3.128906c-4.921876 0-8.925782-4.003906-8.925782-8.921875v-8.921875h20.976563zm237.074219 0c0 4.917969-4 8.921875-8.921876 8.921875h-3.128906c-4.921875 0-8.925781-4.003906-8.925781-8.921875v-8.921875h20.976563zm20-28.921875v-258.441406h20.976562v258.441406zm0 0"/><path d="m190 331.875c17.070312 0 30.957031-13.664062 30.957031-30.457031 0-16.796875-13.886719-30.457031-30.957031-30.457031s-30.957031 13.660156-30.957031 30.457031c0 16.792969 13.886719 30.457031 30.957031 30.457031zm0-40.914062c6.042969 0 10.957031 4.691406 10.957031 10.457031s-4.914062 10.457031-10.957031 10.457031c-6.039062 0-10.957031-4.691406-10.957031-10.457031s4.917969-10.457031 10.957031-10.457031zm0 0"/><path d="m225.855469 419.367188h-.242188c-5.523437 0-10 4.480468-10 10 0 5.523437 4.476563 10 10 10h.242188c5.523437 0 10-4.476563 10-10 0-5.519532-4.476563-10-10-10zm0 0"/><path d="m196.183594 419.363281h-42.039063c-5.523437 0-10 4.480469-10 10 0 5.523438 4.476563 10 10 10h42.039063c5.519531 0 10-4.476562 10-10 0-5.519531-4.480469-10-10-10zm0 0"/><path d="m190.003906 105.710938c-5.523437 0-10 4.476562-10 10v.234374c0 5.523438 4.476563 10 10 10 5.523438 0 10-4.476562 10-10v-.234374c0-5.523438-4.476562-10-10-10zm0 0"/></svg>