<svg id="Capa_1" enable-background="new 0 0 512 512" height="512" viewBox="0 0 512 512" width="512" xmlns="http://www.w3.org/2000/svg"><g><g><g><path d="m441.999 301.206v181.72c0 10.534-8.54 19.074-19.074 19.074h-333.85c-10.534 0-19.074-8.54-19.074-19.074v-453.852c0-10.534 8.539-19.074 19.074-19.074h333.851c10.534 0 19.074 8.54 19.074 19.074v181.719" fill="#faf7f5"/></g><g><g><g><path d="m118.638 56.298h274.723v87.83h-274.723z" fill="#ccf5fc"/></g><g><g><g><path d="m118.638 200.298h118.425v108.425h-118.425z" fill="#ff7d97"/></g><g><path d="m274.936 200.298h118.425v108.425h-118.425z" fill="#fff2a0"/></g></g><g><g><path d="m118.638 347.277h118.425v108.425h-118.425z" fill="#fff7bf"/></g><g><path d="m274.936 347.277h118.425v108.425h-118.425z" fill="#d1aee5"/></g></g></g></g></g></g><g><path d="m442 265.82c-4.194 0-7.982-2.711-9.406-6.636-1.398-3.85-.201-8.353 2.938-10.993 3.288-2.765 8.087-3.138 11.745-.867 3.502 2.174 5.322 6.409 4.523 10.446-.913 4.614-5.094 8.05-9.8 8.05z"/><g><g><g><path d="m354.685 395h-41.071c-5.523 0-10-4.477-10-10s4.477-10 10-10h41.071c5.523 0 10 4.477 10 10s-4.478 10-10 10z"/></g></g><g><g><path d="m354.685 425.638h-41.071c-5.523 0-10-4.477-10-10s4.477-10 10-10h41.071c5.523 0 10 4.477 10 10s-4.478 10-10 10z"/></g></g></g><g><g><path d="m354.685 264.511h-41.071c-5.523 0-10-4.477-10-10s4.477-10 10-10h41.071c5.523 0 10 4.477 10 10s-4.478 10-10 10z"/></g></g><path d="m198.387 244.511h-10.536v-10.536c0-5.523-4.477-10-10-10s-10 4.477-10 10v10.536h-10.536c-5.523 0-10 4.477-10 10s4.477 10 10 10h10.536v10.536c0 5.523 4.477 10 10 10s10-4.477 10-10v-10.536h10.536c5.523 0 10-4.477 10-10s-4.477-10-10-10z"/><path d="m199.443 379.897c-3.905-3.905-10.237-3.905-14.143 0l-7.45 7.45-7.45-7.45c-3.905-3.905-10.237-3.905-14.143 0-3.905 3.905-3.905 10.237 0 14.143l7.45 7.45-7.45 7.45c-3.905 3.905-3.905 10.237 0 14.143 1.953 1.953 4.512 2.929 7.071 2.929s5.119-.976 7.071-2.929l7.45-7.45 7.45 7.45c1.953 1.953 4.512 2.929 7.071 2.929s5.119-.976 7.071-2.929c3.905-3.905 3.905-10.237 0-14.143l-7.45-7.45 7.45-7.45c3.907-3.906 3.907-10.238.002-14.143z"/><path d="m393.362 465.702h-118.426c-5.523 0-10-4.477-10-10v-108.425c0-5.523 4.477-10 10-10h118.425c5.523 0 10 4.477 10 10v108.425c.001 5.523-4.476 10-9.999 10zm-108.426-20h98.425v-88.425h-98.425z"/><path d="m237.064 465.702h-118.426c-5.523 0-10-4.477-10-10v-108.425c0-5.523 4.477-10 10-10h118.425c5.523 0 10 4.477 10 10v108.425c.001 5.523-4.477 10-9.999 10zm-108.426-20h98.425v-88.425h-98.425z"/><path d="m393.362 318.723h-118.426c-5.523 0-10-4.477-10-10v-108.425c0-5.523 4.477-10 10-10h118.425c5.523 0 10 4.477 10 10v108.425c.001 5.523-4.476 10-9.999 10zm-108.426-20h98.425v-88.425h-98.425z"/><path d="m237.064 318.723h-118.426c-5.523 0-10-4.477-10-10v-108.425c0-5.523 4.477-10 10-10h118.425c5.523 0 10 4.477 10 10v108.425c.001 5.523-4.477 10-9.999 10zm-108.426-20h98.425v-88.425h-98.425z"/><path d="m393.362 154.128h-274.724c-5.523 0-10-4.477-10-10v-87.83c0-5.523 4.477-10 10-10h274.724c5.523 0 10 4.477 10 10v87.83c0 5.523-4.477 10-10 10zm-264.724-20h254.724v-67.83h-254.724z"/><path d="m422.925 512h-333.85c-16.032 0-29.074-13.043-29.074-29.074v-453.852c0-16.031 13.042-29.074 29.074-29.074h333.851c16.032 0 29.074 13.043 29.074 29.074v181.719c0 5.523-4.477 10-10 10s-10-4.477-10-10v-181.719c0-5.003-4.071-9.074-9.074-9.074h-333.851c-5.003 0-9.074 4.071-9.074 9.074v453.852c0 5.003 4.071 9.074 9.074 9.074h333.851c5.003 0 9.074-4.071 9.074-9.074v-181.72c0-5.523 4.477-10 10-10s10 4.477 10 10v181.72c-.001 16.031-13.043 29.074-29.075 29.074z"/></g></g></svg>