<svg height="512pt" viewBox="0 0 512 512" width="512pt" xmlns="http://www.w3.org/2000/svg"><path d="m512 15v482c0 8.398438-6.597656 15-15 15h-482c-8.402344 0-15-6.601562-15-15v-482c0-8.402344 6.597656-15 15-15h482c8.402344 0 15 6.597656 15 15zm0 0" fill="#575f64"/><path d="m512 15v482c0 8.398438-6.597656 15-15 15h-241v-512h241c8.402344 0 15 6.597656 15 15zm0 0" fill="#32393f"/><path d="m271 271v98.789062l34.394531 25.605469 111.210938-30 65.394531 4.394531v-98.789062zm0 0" fill="#d8d8fc"/><path d="m416.605469 305.394531c-5.859375-5.859375-15.351563-5.859375-21.210938 0l-49.394531 49.394531-19.394531-19.394531c-5.859375-5.859375-15.351563-5.859375-21.210938 0l-34.394531 34.394531v112.210938h211v-112.210938zm0 0" fill="#6b0"/><path d="m30 30h211v211h-211zm0 0" fill="#ff641a"/><path d="m83.925781 209.226562c-4.878906-2.605468-7.925781-7.691406-7.925781-13.226562v-120c0-5.535156 3.046875-10.621094 7.925781-13.226562 4.878907-2.59375 10.796875-2.316407 15.394531.746093l90 60c4.175782 2.78125 6.679688 7.46875 6.679688 12.480469 0 5.007812-2.503906 9.695312-6.679688 12.480469l-90 60c-4.652343 3.101562-10.585937 3.328125-15.394531.746093zm0 0" fill="#f2f2fc"/><path d="m271 30h211v211h-211zm0 0" fill="#fdbf00"/><path d="m376 181h-60c-8.289062 0-15-6.710938-15-15v-60c0-8.289062 6.710938-15 15-15h60c8.289062 0 15 6.710938 15 15v60c0 8.289062-6.710938 15-15 15zm0 0" fill="#32393f"/><path d="m30 271h211v211h-211zm0 0" fill="#4bb9ec"/><path d="m136 421c-8.289062 0-15-6.710938-15-15v-90c0-5.199219 2.695312-10.019531 7.117188-12.757812 4.425781-2.738282 9.949218-2.960938 14.59375-.660157l60 30c7.410156 3.707031 10.414062 12.714844 6.707031 20.128907-3.722657 7.410156-12.6875 10.382812-20.128907 6.707031l-38.289062-19.144531v65.726562c0 8.289062-6.710938 15-15 15zm0 0" fill="#d8d8fc"/><path d="m106 451c-24.8125 0-45-20.1875-45-45s20.1875-45 45-45 45 20.1875 45 45-20.1875 45-45 45zm0 0" fill="#f2f2fc"/><path d="m443.882812 63.242188c-4.410156-2.753907-9.949218-2.988282-14.59375-.660157l-68.289062 28.417969v90l68.289062 28.417969c4.738282 2.351562 10.25 2.039062 14.59375-.660157 4.421876-2.738281 7.117188-7.558593 7.117188-12.757812v-120c0-5.199219-2.695312-10.019531-7.117188-12.757812zm0 0" fill="#575f64"/></svg>